#!OML:ASF H:\Terrain\Patient Classification 1\Animal1\Tuesday\Animal1.ASF
:FULLY-SPECIFIED
:DEGREES
4123
root 8.57475 15.7958 -4.26718 -706.586 -9.83076 359.844
lowerback 18.0323 -0.518854 1.58362
upperback 2.53463 -0.786269 -4.75149
thorax -7.46966 -0.500793 -5.86419
lowerneck 8.36318 8.68485 -2.95987
upperneck -12.4338 13.4701 13.3167
head -6.28962 5.80356 3.53022
rclavicle -1.03368e-014 6.67916e-014
rhumerus 10.1779 -20.1704 -2.94213
rradius 95.0456
rwrist -17.3849
rhand 9.25761 8.67033
rfingers 7.12502
rthumb 34.4219 -18.0188
lclavicle -1.03368e-014 6.67916e-014
lhumerus -19.4493 18.1255 12.7106
lradius 84.6188
lwrist -8.84762
lhand 10.0878 60.5944
lfingers 7.12502
lthumb 35.2096 807.101
rfemur -42.7571 13.1851 25.2633
rtibia 43.9144
rfoot -10.8585 -11.9718
rtoes 1.54842
lfemur -54.6466 -19.573 5.94312
ltibia 66.1198
lfoot 29.176 0.0792327
ltoes -15.4882
4124
root 8.56478 15.7991 -4.2642 -706.675 -9.30619 359.595
lowerback 18.0383 -0.457233 1.75411
upperback 2.44556 -0.665534 -4.65733
thorax -7.55627 -0.448696 -5.89104
lowerneck 9.00855 8.51154 -2.78861
upperneck -12.7829 13.3158 13.3579
head -6.49257 5.67184 3.50271
rclavicle -2.62396e-014 2.38542e-014
rhumerus 10.5085 -20.4948 -3.87999
rradius 94.6149
rwrist -17.4139
rhand 9.91209 8.86243
rfingers 7.12502
rthumb 35.043 -17.6836
lclavicle -2.62396e-014 2.38542e-014
lhumerus -19.5996 17.6122 12.7964
lradius 85.1324
lwrist -8.66332
lhand 10.398 60.4576
lfingers 7.12502
lthumb 35.5037 806.894
rfemur -42.5359 13.1193 25.573
rtibia 43.8703
rfoot -10.9542 -12.2794
rtoes 2.6017
lfemur -54.7007 -19.6529 6.31627
ltibia 66.0135
lfoot 28.8344 0.657239
ltoes -12.3744
4125
root 8.55245 15.7928 -4.26148 -706.658 -8.82011 359.411
lowerback 17.92 -0.357638 1.8134
upperback 2.31146 -0.522377 -4.62786
thorax -7.62088 -0.384119 -5.92865
lowerneck 9.50659 8.30133 -2.41267
upperneck -12.8645 13.1 13.386
head -6.56673 5.52123 3.45522
rclavicle -2.62396e-014 -1.27222e-014
rhumerus 10.7151 -20.8419 -4.65708
rradius 94.1121
rwrist -17.0271
rhand 10.2712 9.32608
rfingers 7.12502
rthumb 35.3835 -17.1395
lclavicle -2.62396e-014 -1.27222e-014
lhumerus -19.5624 17.0624 12.6533
lradius 85.5488
lwrist -8.38985
lhand 11.0789 61.2013
lfingers 7.12502
lthumb 36.1489 807.481
rfemur -42.5128 13.0061 25.8242
rtibia 43.9087
rfoot -11.0915 -12.4832
rtoes 3.73095
lfemur -54.8758 -19.6352 6.68171
ltibia 65.9322
lfoot 28.532 0.855928
ltoes -10.0801
4126
root 8.53939 15.7865 -4.25856 -706.625 -8.40473 359.448
lowerback 17.7888 -0.238676 1.61772
upperback 2.20562 -0.405974 -4.64213
thorax -7.64947 -0.32423 -5.85852
lowerneck 9.37616 8.11757 -2.31632
upperneck -12.3177 12.8333 13.73
head -6.36785 5.39751 3.58577
rclavicle 2.5842e-014 -3.65764e-014
rhumerus 11.4715 -21.0753 -5.31967
rradius 93.0212
rwrist -16.2146
rhand 8.98985 10.2617
rfingers 7.12502
rthumb 34.1676 -16.4847
lclavicle 2.5842e-014 -3.65764e-014
lhumerus -19.2849 17.1899 12.7153
lradius 85.5681
lwrist -8.6692
lhand 12.1156 60.4723
lfingers 7.12502
lthumb 37.13 806.503
rfemur -42.5874 12.93 25.8233
rtibia 44.0368
rfoot -11.043 -12.8585
rtoes 3.39065
lfemur -55.0658 -19.59 6.78286
ltibia 65.8613
lfoot 28.4168 0.625889
ltoes -9.16888
4127
root 8.52521 15.784 -4.25388 -706.738 -7.93403 359.564
lowerback 17.7963 -0.201622 1.26003
upperback 2.17199 -0.421213 -4.58252
thorax -7.68906 -0.320501 -5.58236
lowerneck 8.95208 8.03799 -2.65776
upperneck -11.6897 12.6696 14.3135
head -6.14473 5.34554 3.86056
rclavicle -9.54166e-015 -4.29375e-014
rhumerus 11.4252 -21.5785 -5.61327
rradius 93.1322
rwrist -16.6383
rhand 7.97502 10.5139
rfingers 7.12502
rthumb 33.2033 -16.4432
lclavicle -9.54166e-015 -4.29375e-014
lhumerus -19.284 17.7349 12.888
lradius 85.4445
lwrist -9.23424
lhand 13.3923 59.3042
lfingers 7.12502
lthumb 38.3362 805.011
rfemur -42.5188 12.8568 25.7574
rtibia 44.2378
rfoot -11.0067 -13.4182
rtoes 2.6063
lfemur -55.0986 -19.6641 6.69674
ltibia 65.7755
lfoot 28.2697 -0.164509
ltoes -10.7115
4128
root 8.51455 15.7788 -4.24929 -706.839 -7.35604 359.574
lowerback 17.7963 -0.204497 1.09297
upperback 2.1911 -0.449245 -4.5098
thorax -7.66942 -0.326427 -5.39817
lowerneck 8.78537 7.90463 -2.98216
upperneck -11.6351 12.5145 14.8323
head -6.14107 5.26076 4.09895
rclavicle 3.97569e-016 -6.36111e-015
rhumerus 11.4053 -22.4241 -6.01209
rradius 93.3697
rwrist -17.7649
rhand 10.0622 9.46466
rfingers 7.12502
rthumb 35.1853 -17.0479
lclavicle 3.97569e-016 -6.36111e-015
lhumerus -19.4352 18.0097 12.9443
lradius 85.6936
lwrist -9.34766
lhand 14.5357 58.7942
lfingers 7.12502
lthumb 39.4144 804.194
rfemur -42.4648 12.5984 25.8375
rtibia 44.4565
rfoot -11.1311 -13.7602
rtoes 2.84342
lfemur -55.1801 -19.7667 6.71103
ltibia 65.7059
lfoot 27.9212 -0.760423
ltoes -12.2613
4129
root 8.50831 15.7706 -4.24736 -706.832 -6.76314 359.638
lowerback 17.727 -0.167492 0.982094
upperback 2.17771 -0.419409 -4.50149
thorax -7.64209 -0.307618 -5.33086
lowerneck 8.90736 7.6978 -3.06273
upperneck -11.9097 12.3033 15.0894
head -6.25176 5.1254 4.21102
rclavicle 3.06128e-014 3.18055e-014
rhumerus 11.353 -23.2 -6.43184
rradius 93.2905
rwrist -18.5569
rhand 11.8333 8.69531
rfingers 7.12502
rthumb 36.863 -17.4045
lclavicle 3.06128e-014 3.18055e-014
lhumerus -19.3166 18.0347 12.9345
lradius 85.9594
lwrist -9.02966
lhand 15.7046 58.412
lfingers 7.12502
lthumb 40.5145 803.481
rfemur -42.5712 12.3371 25.8081
rtibia 44.6379
rfoot -11.1787 -14.0484
rtoes 3.12854
lfemur -55.418 -19.8307 6.74112
ltibia 65.6333
lfoot 27.6778 -0.799081
ltoes -11.6578
4130
root 8.50169 15.7631 -4.24711 -706.754 -6.2631 359.64
lowerback 17.626 -0.113474 0.793802
upperback 2.1042 -0.378376 -4.43339
thorax -7.66067 -0.281733 -5.15654
lowerneck 9.08314 7.56275 -3.04053
upperneck -12.0216 12.1483 15.1499
head -6.306 5.03174 4.23693
rclavicle -2.0276e-014 1.59028e-014
rhumerus 11.4298 -23.7004 -6.89651
rradius 93.0009
rwrist -18.366
rhand 11.0166 9.21633
rfingers 7.12502
rthumb 36.0899 -17.078
lclavicle -2.0276e-014 1.59028e-014
lhumerus -19.1464 18.1151 12.9613
lradius 85.9842
lwrist -8.6891
lhand 16.9537 58.4811
lfingers 7.12502
lthumb 41.6874 803.175
rfemur -42.7424 12.3027 25.7678
rtibia 44.7601
rfoot -11.2818 -14.3284
rtoes 3.83508
lfemur -55.6586 -19.7539 6.84061
ltibia 65.5506
lfoot 27.5566 -1.56614
ltoes -13.5699
4131
root 8.49485 15.7665 -4.24045 -706.766 -5.85037 359.54
lowerback 17.5199 -0.0309904 0.683093
upperback 2.08866 -0.280541 -4.33641
thorax -7.60865 -0.2283 -5.00758
lowerneck 8.90947 7.44098 -3.03235
upperneck -11.6392 11.9526 15.3643
head -6.15069 4.9514 4.331
rclavicle -5.96354e-015 -1.74931e-014
rhumerus 11.5602 -24.1398 -7.48208
rradius 92.7094
rwrist -17.3261
rhand 8.97245 10.1128
rfingers 7.12502
rthumb 34.1511 -16.6373
lclavicle -5.96354e-015 -1.74931e-014
lhumerus -18.9769 18.1872 13.0209
lradius 86.1182
lwrist -8.31773
lhand 17.7589 58.9554
lfingers 7.12502
lthumb 42.4419 803.396
rfemur -42.6825 12.2779 25.8708
rtibia 44.798
rfoot -11.4569 -14.5366
rtoes 4.63453
lfemur -55.6499 -19.6846 6.932
ltibia 65.4586
lfoot 27.3231 -2.24779
ltoes -16.4099
4132
root 8.48708 15.773 -4.23143 -706.904 -5.37801 359.509
lowerback 17.4788 0.0284338 0.589862
upperback 2.13907 -0.211863 -4.27848
thorax -7.52435 -0.188833 -4.90445
lowerneck 8.51708 7.27483 -3.14676
upperneck -11.0951 11.676 15.7488
head -5.91662 4.846 4.51428
rclavicle 1.55052e-014 -5.56597e-015
rhumerus 11.5769 -24.7645 -8.15917
rradius 92.6155
rwrist -16.8873
rhand 8.30919 10.2627
rfingers 7.12502
rthumb 33.521 -16.6262
lclavicle 1.55052e-014 -5.56597e-015
lhumerus -18.8722 18.2081 13.0007
lradius 86.4065
lwrist -7.82126
lhand 18.1033 59.177
lfingers 7.12502
lthumb 42.7642 803.506
rfemur -42.3981 12.0361 26.012
rtibia 44.7754
rfoot -11.3922 -14.8976
rtoes 3.97461
lfemur -55.5418 -19.7517 6.93329
ltibia 65.3534
lfoot 27.0982 -1.70737
ltoes -15.6869
